<svg xmlns="http://www.w3.org/2000/svg" width="31" height="21" fill="none" xmlns:v="https://vecta.io/nano"><g clip-path="url(#A)"><path fill-rule="evenodd" d="M24.22 4.688c-.322 0-.64.023-.956.068C21.454 2.29 18.6.813 15.5.813S9.548 2.29 7.737 4.756a6.72 6.72 0 0 0-.956-.068A6.79 6.79 0 0 0 0 11.469a6.79 6.79 0 0 0 6.781 6.781 6.71 6.71 0 0 0 2.404-.444c1.753 1.53 3.983 2.38 6.315 2.38a9.59 9.59 0 0 0 6.314-2.381 6.71 6.71 0 0 0 2.404.444A6.79 6.79 0 0 0 31 11.469a6.79 6.79 0 0 0-6.781-6.781zm0 11.625c-1.037 0-1.993-.333-2.78-.888-1.422 1.713-3.538 2.826-5.937 2.826s-4.516-1.113-5.937-2.825a4.81 4.81 0 0 1-2.781.888c-2.675 0-4.844-2.168-4.844-4.844S4.106 6.625 6.78 6.625a4.81 4.81 0 0 1 1.843.368C9.9 4.486 12.5 2.75 15.5 2.75s5.6 1.736 6.875 4.243c.57-.235 1.19-.368 1.844-.368 2.676 0 4.844 2.168 4.844 4.844s-2.168 4.844-4.844 4.844z" fill="#57addd"/></g><defs><clipPath id="A"><path fill="#fff" d="M0-5h31v31H0z"/></clipPath></defs></svg>