<svg xmlns="http://www.w3.org/2000/svg" width="33" height="21" fill="none" xmlns:v="https://vecta.io/nano"><g clip-path="url(#A)"><path d="M15.817.688c-.525.465-3.58 4.372-4.87 6.218-1.312 1.88-2.603 4.173-3.012 5.345-.252.715-.252 2.477 0 3.217.766 2.253 3.096 4.106 5.95 4.713.955.2 3.453.2 4.408 0 2.31-.49 4.356-1.83 5.363-3.508.61-1.006.766-1.57.766-2.826 0-1.164-.105-1.596-.693-2.826-.315-.657-1.837-3.184-2.3-3.824L20.35 5.7 16.33.646c-.22-.183-.262-.183-.514.042z" fill="#57addd"/></g><defs><clipPath id="A"><path fill="#fff" d="M.45-.66h34.006v21.53H.45z"/></clipPath></defs></svg>