<svg xmlns="http://www.w3.org/2000/svg" width="33" height="21" fill="none" xmlns:v="https://vecta.io/nano"><g clip-path="url(#A)"><path d="M23.55 10.29c-.145.13-.99 1.208-1.346 1.718-.363.52-.72 1.153-.832 1.477a1.92 1.92 0 0 0 0 .889c.212.623.856 1.135 1.644 1.302a4.51 4.51 0 0 0 1.218 0c.638-.136 1.204-.505 1.482-.97a1.24 1.24 0 0 0 .212-.781c0-.32-.03-.44-.19-.78-.087-.18-.508-.88-.635-1.056l-.3-.414-1.11-1.396c-.06-.05-.072-.05-.142.01z" fill="#57addd"/></g><path d="M11.575 9.38c-.306.272-2.088 2.55-2.84 3.627-.765 1.096-1.518 2.434-1.757 3.118-.147.417-.147 1.445 0 1.877.447 1.314 1.806 2.395 3.47 2.75.557.116 2.014.116 2.57 0 1.347-.286 2.54-1.067 3.13-2.046.355-.587.447-.916.447-1.65 0-.68-.06-.93-.404-1.65-.184-.383-1.07-1.857-1.34-2.23l-.63-.873-2.345-2.948c-.13-.107-.153-.107-.3.024z" fill="#57addd"/><g clip-path="url(#B)"><path d="M18.287 1.16c-.193.172-1.32 1.61-1.794 2.29-.483.692-.96 1.537-1.1 1.97a2.56 2.56 0 0 0 0 1.185c.282.83 1.14 1.513 2.193 1.736.352.073 1.272.073 1.624 0 .85-.18 1.605-.674 1.976-1.292.224-.37.282-.58.282-1.04 0-.43-.04-.588-.255-1.04-.116-.242-.677-1.173-.847-1.41l-.398-.55-1.48-1.862c-.08-.067-.097-.067-.19.015z" fill="#57addd"/></g><defs><clipPath id="A"><path fill="#fff" d="M19.303 9.917H28.7v5.95h-9.396z"/></clipPath><clipPath id="B"><path fill="#fff" d="M12.626.663h12.53v7.932h-12.53z"/></clipPath></defs></svg>