<svg xmlns="http://www.w3.org/2000/svg" width="32" height="32" fill="none" xmlns:v="https://vecta.io/nano"><g clip-path="url(#A)"><path fill="#fff" d="M-293-90H71v1181h-364z"/><path d="M22.654 18.594h-1.098l-.39-.4c1.362-1.683 2.182-3.867 2.182-6.243 0-5.3-4.044-9.594-9.033-9.594s-9.033 4.295-9.033 9.594 4.044 9.594 9.033 9.594c2.237 0 4.294-.87 5.878-2.317l.375.413v1.166l6.948 7.365 2.07-2.2-6.935-7.38zm-8.338 0c-3.46 0-6.254-2.967-6.254-6.642s2.793-6.642 6.254-6.642 6.254 2.967 6.254 6.642-2.793 6.642-6.254 6.642z" fill="#727070"/></g><defs><clipPath id="A"><path fill="#fff" d="M-293-90H71v1181h-364z"/></clipPath></defs></svg>